# xmcd
#
# Track frame offsets:
#	150
#	18179
#	34713
#	51157
#	70975
#	93918
#	109935
#	124492
#	132106
#	149000
#	172788
#	189282
#	205631
#	223509
#	237959
#	255505
#	271179
#
# Disc length: 3867 seconds
#
# Revision: 2
# Processed by: cddbd v1.5.2PL0 Copyright (c) Steve Scherf et al.
# Submitted via: audiograbber 1.83.01
#
DISCID=ed0f1911
DTITLE=Sarah Connor - Green Eyed Soul
DYEAR=1900
DGENRE=Soul
TTITLE0=Let's Get Back To Bed
TTITLE1=If U Were My Man
TTITLE2=French Kissing
TTITLE3=Magic Ride (Whatever You Wish 4)
TTITLE4=From Sarah With Love
TTITLE5=Make U High
TTITLE6=In My House
TTITLE7=Where Do We Go from Here
TTITLE8=I Can't Lie
TTITLE9=Imagining
TTITLE10=Every Little Thing
TTITLE11=Undressed
TTITLE12=Can't Get None
TTITLE13=Man Of My Dreams
TTITLE14=Let Us Come 2gether
TTITLE15=When I Dream
TTITLE16=Let's Get Back To Bed Boy!
EXTD=
EXTT0=
EXTT1=
EXTT2=
EXTT3=
EXTT4=
EXTT5=
EXTT6=
EXTT7=
EXTT8=
EXTT9=
EXTT10=
EXTT11=
EXTT12=
EXTT13=
EXTT14=
EXTT15=
EXTT16=
PLAYORDER=
